<?xml version="1.0" encoding="UTF-8"?><svg xmlns="http://www.w3.org/2000/svg" viewBox="0 0 354.66 172.05"><defs><style>.d{fill:#3c4557;}</style></defs><g id="a"/><g id="b"><g id="c"><g><g><g><path class="d" d="M0,90.53l17.49-.53c.53,5.83,1.85,12.59,8.48,12.59,5.3,0,6.89-4.5,6.89-8.74,0-5.17-3.31-9.01-8.74-14.18l-9.01-8.88C6.62,62.84,1.46,55.03,1.46,44.69c0-13.12,8.21-24.38,25.04-24.38,11.79,0,22.79,6.09,23.58,26.76l-16.43,.53c-.66-6.89-2.25-12.32-8.08-12.32-4.64,0-6.76,3.58-6.76,7.95,0,5.03,5.17,9.8,9.67,14.04l8.35,8.21c9.14,8.74,14.31,16.83,14.31,27.42,0,13.91-9.54,24.91-25.31,24.91S.93,107.36,0,90.53Z"/><path class="d" d="M80.15,21.91h18.68V60.19h16.43V21.91h18.68V116.37h-18.68v-39.22h-16.43v39.22h-18.68V21.91Z"/><path class="d" d="M165.07,21.91h18.68V116.37h-18.68V21.91Z"/><path class="d" d="M214.09,91.99V46.15c0-16.83,11.79-25.7,27.43-25.7s27.29,7.95,27.29,25.44v45.84c0,17.62-12.19,26.1-27.42,26.1-16.16,0-27.29-8.21-27.29-25.84Zm35.9,.4V45.36c0-5.43-3.44-8.61-8.61-8.61-5.57,0-8.35,3.44-8.35,8.74v46.77c0,5.3,2.91,9.14,8.48,9.14s8.48-3.84,8.48-9.01Z"/><path class="d" d="M299.14,21.91h18.68V63.64l18.15-41.73h18.42l-16.83,36.96,17.09,57.5h-19.87l-11-42-5.96,11.26v30.74h-18.68V21.91Z"/></g><g><path class="d" d="M6.28,164.91v-14c0-4.53,3.49-7.06,7.9-7.06,4.11,0,7.33,2.38,7.33,6.6v3.03h-4.91v-2.57c0-1.46-.96-2.38-2.42-2.38-1.65,0-2.42,1-2.42,2.49v13.66c0,1.65,.88,2.61,2.46,2.61,1.42,0,2.38-.96,2.38-2.38v-2.49h4.91v2.8c0,4.3-3.18,6.83-7.37,6.83-4.53,0-7.86-2.34-7.86-7.14Z"/><path class="d" d="M30.95,164.56v-13.27c0-4.87,3.41-7.44,7.94-7.44s7.9,2.3,7.9,7.37v13.27c0,5.1-3.53,7.56-7.94,7.56-4.68,0-7.9-2.38-7.9-7.48Zm10.4,.12v-13.62c0-1.57-1-2.49-2.49-2.49-1.61,0-2.42,1-2.42,2.53v13.54c0,1.53,.84,2.65,2.46,2.65s2.46-1.11,2.46-2.61Z"/><path class="d" d="M56.72,144.27h13.12v4.56h-7.75v6.6h6.18v4.64h-6.18v11.55h-5.37v-27.35Z"/><path class="d" d="M79.36,144.27h13.12v4.56h-7.75v6.6h6.18v4.64h-6.18v11.55h-5.37v-27.35Z"/><path class="d" d="M101.99,144.27h13.16v4.56h-7.79v6.45h6.18v4.6h-6.18v7.1h7.83v4.64h-13.2v-27.35Z"/><path class="d" d="M124.94,144.27h13.16v4.56h-7.79v6.45h6.18v4.6h-6.18v7.1h7.83v4.64h-13.2v-27.35Z"/><path class="d" d="M165.86,144.27h7.87c4.6,0,7.4,2.53,7.4,8.09,0,3.95-1.27,6.18-3.18,7.21l3.53,12.05h-5.6l-2.8-10.86h-1.8v10.86h-5.41v-27.35Zm7.4,12.47c1.53,0,2.46-1.07,2.46-4.03,0-2.57-.81-3.95-2.49-3.95h-1.96v7.98h1.99Z"/><path class="d" d="M190.76,164.56v-13.27c0-4.87,3.41-7.44,7.94-7.44s7.9,2.3,7.9,7.37v13.27c0,5.1-3.53,7.56-7.94,7.56-4.68,0-7.9-2.38-7.9-7.48Zm10.4,.12v-13.62c0-1.57-1-2.49-2.49-2.49-1.61,0-2.42,1-2.42,2.53v13.54c0,1.53,.84,2.65,2.46,2.65s2.46-1.11,2.46-2.61Z"/><path class="d" d="M220.83,144.23h7.37l5.33,27.39h-5.49l-1.11-6.14h-5.56l-1.11,6.14h-4.99l5.56-27.39Zm5.22,16.88l-1.8-10.78h-.11l-1.88,10.78h3.8Z"/><path class="d" d="M241.82,164.14l5.06-.15c.15,1.69,.54,3.65,2.46,3.65,1.53,0,1.99-1.3,1.99-2.53,0-1.5-.96-2.61-2.53-4.1l-2.61-2.57c-2.46-2.3-3.95-4.56-3.95-7.56,0-3.8,2.38-7.06,7.25-7.06,3.41,0,6.6,1.76,6.83,7.75l-4.76,.15c-.19-1.99-.65-3.57-2.34-3.57-1.34,0-1.96,1.04-1.96,2.3,0,1.46,1.5,2.84,2.8,4.07l2.42,2.38c2.65,2.53,4.14,4.87,4.14,7.94,0,4.03-2.76,7.21-7.33,7.21s-7.21-3.03-7.48-7.9Z"/><path class="d" d="M269.82,148.83h-5.18v-4.56h15.77v4.56h-5.14v22.79h-5.45v-22.79Z"/><path class="d" d="M289.66,144.27h13.16v4.56h-7.79v6.45h6.18v4.6h-6.18v7.1h7.83v4.64h-13.2v-27.35Z"/><path class="d" d="M312.6,144.27h7.87c4.6,0,7.4,2.53,7.4,8.09,0,3.95-1.27,6.18-3.18,7.21l3.53,12.05h-5.6l-2.8-10.86h-1.8v10.86h-5.41v-27.35Zm7.4,12.47c1.53,0,2.46-1.07,2.46-4.03,0-2.57-.81-3.95-2.49-3.95h-1.96v7.98h1.99Z"/><path class="d" d="M336.92,164.14l5.06-.15c.15,1.69,.54,3.65,2.46,3.65,1.53,0,1.99-1.3,1.99-2.53,0-1.5-.96-2.61-2.53-4.1l-2.61-2.57c-2.46-2.3-3.95-4.56-3.95-7.56,0-3.8,2.38-7.06,7.25-7.06,3.41,0,6.6,1.76,6.83,7.75l-4.76,.15c-.19-1.99-.65-3.57-2.34-3.57-1.34,0-1.96,1.04-1.96,2.3,0,1.46,1.5,2.84,2.8,4.07l2.42,2.38c2.65,2.53,4.14,4.87,4.14,7.94,0,4.03-2.76,7.21-7.33,7.21s-7.21-3.03-7.48-7.9Z"/></g></g><polygon class="d" points="257.21 0 241.45 21.91 225.69 0 257.21 0"/></g></g></g></svg>